HIERARCHY
ROOT Hips
{
	OFFSET 0.00000 0.00000 0.00000
	CHANNELS 6 Xposition Yposition Zposition Zrotation Yrotation Xrotation 
	JOINT LHipJoint
	{
		OFFSET 0 0 0
		CHANNELS 3 Zrotation Yrotation Xrotation
		JOINT LeftUpLeg
		{
			OFFSET 1.36337 -1.57426 1.11036
			CHANNELS 3 Zrotation Yrotation Xrotation
			JOINT LeftLeg
			{
				OFFSET 2.38468 -6.55187 0.00000
				CHANNELS 3 Zrotation Yrotation Xrotation
				JOINT LeftFoot
				{
					OFFSET 2.37166 -6.51609 0.00000
					CHANNELS 3 Zrotation Yrotation Xrotation
					JOINT LeftToeBase
					{
						OFFSET 0.29078 -0.79891 2.01393
						CHANNELS 3 Zrotation Yrotation Xrotation
						End Site
						{
							OFFSET 0.00000 -0.00000 1.07924
						}
					}
				}
			}
		}
	}
	JOINT RHipJoint
	{
		OFFSET 0 0 0
		CHANNELS 3 Zrotation Yrotation Xrotation
		JOINT RightUpLeg
		{
			OFFSET -1.36349 -1.57426 1.11036
			CHANNELS 3 Zrotation Yrotation Xrotation
			JOINT RightLeg
			{
				OFFSET -2.29562 -6.30717 0.00000
				CHANNELS 3 Zrotation Yrotation Xrotation
				JOINT RightFoot
				{
					OFFSET -2.40985 -6.62100 0.00000
					CHANNELS 3 Zrotation Yrotation Xrotation
					JOINT RightToeBase
					{
						OFFSET -0.23197 -0.63733 1.92232
						CHANNELS 3 Zrotation Yrotation Xrotation
						End Site
						{
							OFFSET -0.00000 -0.00000 1.01562
						}
					}
				}
			}
		}
	}
	JOINT LowerBack
	{
		OFFSET 0 0 0
		CHANNELS 3 Zrotation Yrotation Xrotation
		JOINT Spine
		{
			OFFSET -0.08565 2.03602 -0.24562
			CHANNELS 3 Zrotation Yrotation Xrotation
			JOINT Spine1
			{
				OFFSET -0.00036 2.05693 0.00216
				CHANNELS 3 Zrotation Yrotation Xrotation
				JOINT Neck
				{
					OFFSET 0 0 0
					CHANNELS 3 Zrotation Yrotation Xrotation
					JOINT Neck1
					{
						OFFSET -0.03664 1.69515 0.31789
						CHANNELS 3 Zrotation Yrotation Xrotation
						JOINT Head
						{
							OFFSET 0.00932 1.70181 -0.46013
							CHANNELS 3 Zrotation Yrotation Xrotation
							End Site
							{
								OFFSET 0.01243 1.77620 -0.19377
							}
						}
					}
				}
				JOINT LeftShoulder
				{
					OFFSET 0 0 0
					CHANNELS 3 Zrotation Yrotation Xrotation
					JOINT LeftArm
					{
						OFFSET 3.74344 0.81315 -0.36647
						CHANNELS 3 Zrotation Yrotation Xrotation
						JOINT LeftForeArm
						{
							OFFSET 4.97185 -0.00000 -0.00000
							CHANNELS 3 Zrotation Yrotation Xrotation
							JOINT LeftHand
							{
								OFFSET 3.35811 -0.00000 0.00000
								CHANNELS 3 Zrotation Yrotation Xrotation
								JOINT LeftFingerBase
								{
									OFFSET 0 0 0
									CHANNELS 3 Zrotation Yrotation Xrotation
									JOINT LeftHandIndex1
									{
										OFFSET 0.62278 -0.00000 0.00000
										CHANNELS 3 Zrotation Yrotation Xrotation
										End Site
										{
											OFFSET 0.50210 -0.00000 0.00000
										}
									}
								}
								JOINT LThumb
								{
									OFFSET 0 0 0
									CHANNELS 3 Zrotation Yrotation Xrotation
									End Site
									{
										OFFSET 0.50976 -0.00000 0.50976
									}
								}
							}
						}
					}
				}
				JOINT RightShoulder
				{
					OFFSET 0 0 0
					CHANNELS 3 Zrotation Yrotation Xrotation
					JOINT RightArm
					{
						OFFSET -3.75385 0.50666 -0.06525
						CHANNELS 3 Zrotation Yrotation Xrotation
						JOINT RightForeArm
						{
							OFFSET -4.96493 -0.00000 -0.00000
							CHANNELS 3 Zrotation Yrotation Xrotation
							JOINT RightHand
							{
								OFFSET -3.34929 -0.00000 0.00000
								CHANNELS 3 Zrotation Yrotation Xrotation
								JOINT RightFingerBase
								{
									OFFSET 0 0 0
									CHANNELS 3 Zrotation Yrotation Xrotation
									JOINT RightHandIndex1
									{
										OFFSET -0.63804 -0.00000 0.00000
										CHANNELS 3 Zrotation Yrotation Xrotation
										End Site
										{
											OFFSET -0.51441 -0.00000 0.00000
										}
									}
								}
								JOINT RThumb
								{
									OFFSET 0 0 0
									CHANNELS 3 Zrotation Yrotation Xrotation
									End Site
									{
										OFFSET -0.52226 -0.00000 0.52226
									}
								}
							}
						}
					}
				}
			}
		}
	}
}
MOTION
Frames: 6
Frame Time: .0083333
4.6414 14.5556 -4.2601 -179.1890 97.9620 -156.6930 0.0000 0.0000 0.0000 -6.1158 -10.5623 -71.0915 12.8655 18.7331 68.7072 0.5821 -7.7556 -13.8284 0.0027 0.3385 0.9300 0.0000 0.0000 0.0000 -1.5719 3.1306 -32.9252 -9.0884 -16.8643 56.3953 -2.1795 -13.2469 -35.1892 -2.2685 9.4043 -27.0685 -6.0579 0.9104 35.3412 -3.6561 -0.7759 6.3839 -0.4756 0.1048 -10.5584 1.0889 7.5088 -34.5527 -14.2991 13.6464 15.7973 -2.8208 4.3474 12.0213 0.0000 -0.0000 0.0000 -99.8433 -32.4514 119.6930 21.7130 -32.6512 -6.4303 -0.0000 0.0000 -2.4977 11.3636 -3.6876 -0.7406 -7.1250 0.0000 -0.0000 -11.5290 26.1852 5.3608 0.0000 -0.0000 0.0000 85.9351 9.2816 49.8038 -18.7932 29.1609 -4.9297 0.0000 -0.0000 -50.4050 0.7062 -35.7594 -0.4127 7.1250 -0.0000 -0.0000 40.0751 -61.0609 -17.2264
4.7786 14.6314 -4.3665 -182.4310 98.1064 -159.6190 0.0000 0.0000 0.0000 -6.1773 -10.6153 -70.5963 12.7683 18.6969 68.4045 0.6252 -7.7731 -14.2934 0.0018 0.2764 0.7593 0.0000 0.0000 0.0000 -0.9528 2.9946 -32.3183 -8.6061 -16.5475 54.7178 -2.0886 -13.7311 -35.0584 -2.0531 8.9758 -25.7195 -5.7467 1.0936 35.0437 -3.5865 -0.4467 6.1984 -0.6891 0.2362 -10.6733 0.5709 7.0451 -34.3727 -13.6074 13.0323 15.7113 -2.6167 4.1472 11.7963 0.0000 -0.0000 0.0000 -99.3803 -32.2037 119.8976 22.7248 -33.7865 -6.9847 -0.0000 0.0000 -2.4407 9.9831 -3.1519 -0.5545 -7.1250 0.0000 -0.0000 -12.6156 26.7249 5.7251 0.0000 -0.0000 0.0000 86.1915 9.4319 48.7127 -17.7515 27.8379 -4.4326 0.0000 -0.0000 -47.3529 -1.1269 -35.8345 0.6598 7.1250 -0.0000 -0.0000 38.3941 -61.5738 -16.8441
4.9108 14.7065 -4.4679 -184.9750 98.3015 -161.8990 0.0000 0.0000 0.0000 -6.2855 -10.7572 -70.0119 12.6533 18.6534 68.0453 0.6835 -7.6167 -14.8780 0.0002 0.0803 0.2205 0.0000 0.0000 0.0000 -0.4126 2.7670 -31.7622 -8.1331 -16.2162 53.0405 -2.0229 -14.0344 -34.9324 -1.9356 8.7306 -24.9563 -5.5010 1.2494 34.6163 -3.5408 -0.1574 6.1345 -0.8461 0.3500 -10.7140 0.2388 6.6718 -34.0578 -13.1294 12.4822 15.4168 -2.5050 3.9787 11.5171 0.0000 0.0000 0.0000 -98.8166 -32.0618 119.7352 23.8975 -35.0557 -7.6476 -0.0000 0.0000 -2.1946 8.4577 -3.0383 -0.4516 -7.1250 0.0000 -0.0000 -13.7705 26.8375 6.2400 0.0000 0.0000 0.0000 86.3450 9.5928 47.6637 -16.7573 26.5368 -3.9783 0.0000 -0.0000 -43.9355 -0.4614 -37.7338 0.2824 7.1250 -0.0000 -0.0000 41.3692 -62.8558 -19.6487
5.0460 14.7727 -4.5678 -187.9580 98.7095 -164.5860 0.0000 0.0000 0.0000 -6.2978 -10.7988 -69.4269 12.5477 18.6127 67.7145 0.7652 -7.3747 -15.6736 0.0005 -0.1418 -0.3896 0.0000 0.0000 0.0000 0.1633 2.5669 -31.3501 -7.6679 -15.8695 51.3574 -1.9388 -14.2049 -34.6017 -1.9254 8.7089 -24.8890 -5.3667 1.4017 34.0048 -3.4995 0.1017 6.0612 -0.9613 0.4501 -10.5703 0.2583 6.4621 -33.7645 -12.7918 12.0035 14.9279 -2.4824 3.8544 11.2125 0.0000 -0.0000 0.0000 -97.9280 -32.2268 119.3213 25.2012 -36.4089 -8.4090 -0.0000 0.0000 -2.4929 6.9459 -3.4766 -0.4233 -7.1250 0.0000 -0.0000 -14.8438 26.4065 6.9132 0.0000 -0.0000 0.0000 86.4752 9.8624 46.9526 -15.9568 25.4620 -3.6273 0.0000 -0.0000 -40.2506 -2.2278 -37.8512 1.3674 7.1250 -0.0000 -0.0000 39.8078 -63.4132 -19.2944
5.1554 14.8340 -4.6538 -190.2620 99.0206 -166.2870 0.0000 0.0000 0.0000 -6.1641 -10.9838 -69.2975 12.4360 18.5690 67.3644 0.8253 -7.1226 -16.2398 0.0016 -0.2547 -0.6997 0.0000 0.0000 0.0000 0.7281 2.2949 -31.5153 -7.2688 -15.5541 49.8837 -1.8686 -14.0650 -34.0959 -1.9151 8.6869 -24.8207 -5.4203 1.4759 33.0686 -3.4514 0.2163 5.9621 -0.9055 0.4861 -10.3180 0.2170 6.2879 -33.7930 -12.2218 11.5679 14.5370 -2.3548 3.7523 10.9787 -0.0000 -0.0000 0.0000 -96.7665 -32.4378 118.4219 26.6749 -37.8674 -9.2989 -0.0000 0.0000 -3.2365 6.1840 -3.8790 -0.4200 -7.1250 0.0000 -0.0000 -15.3572 26.0143 7.3159 -0.0000 -0.0000 0.0000 86.6113 10.1483 46.4623 -15.4425 24.7589 -3.4091 0.0000 -0.0000 -36.2145 -3.9867 -38.3291 2.4749 7.1250 -0.0000 -0.0000 38.7121 -64.2553 -19.4314
5.2758 14.9059 -4.7351 -192.5340 99.7577 -168.4770 0.0000 0.0000 0.0000 -6.0844 -10.8409 -68.4284 12.3069 18.5174 66.9584 0.8961 -6.8383 -16.8976 0.0015 -0.2482 -0.6819 0.0000 0.0000 0.0000 1.3179 2.3899 -31.1713 -6.9143 -15.2593 48.5495 -1.8190 -13.6758 -33.5012 -1.8945 8.6427 -24.6838 -5.6275 1.7455 32.5468 -3.4336 0.5130 5.9609 -0.8758 0.6165 -10.1149 -0.1569 6.0526 -34.2260 -11.3354 11.1833 14.4664 -2.0490 3.6574 10.8922 -0.0000 -0.0000 0.0000 -95.4292 -32.6745 117.2902 28.4228 -39.5026 -10.3916 -0.0000 0.0000 -3.9522 5.4914 -4.0845 -0.3923 -7.1250 0.0000 -0.0000 -15.8405 25.8144 7.6409 -0.0000 -0.0000 0.0000 86.6352 10.3700 46.2682 -15.1748 24.3891 -3.2978 0.0000 -0.0000 -32.2837 -6.0979 -38.6314 3.8157 7.1250 -0.0000 -0.0000 37.0121 -65.0765 -19.1554
